<svg width="1728" height="1117" viewBox="0 0 1728 1117" fill="none" xmlns="http://www.w3.org/2000/svg">
<g clip-path="url(#clip0_1_45)">
<rect width="1728" height="1117" fill="white"/>
<rect x="1122.39" y="1095.54" width="13.7831" height="211.245" rx="6.89153" transform="rotate(-50 1122.39 1095.54)" fill="url(#paint0_linear_1_45)" fill-opacity="0.79"/>
<rect x="1114" y="893.559" width="13.7831" height="880.245" rx="6.89153" transform="rotate(-50 1114 893.559)" fill="url(#paint1_linear_1_45)" fill-opacity="0.79"/>
<rect x="-60" y="1001.55" width="13.7831" height="239.473" rx="6.89153" transform="rotate(-50 -60 1001.55)" fill="url(#paint2_linear_1_45)" fill-opacity="0.79"/>
<rect x="-32.7207" y="777.558" width="13.7831" height="553.714" rx="6.89153" transform="rotate(-50 -32.7207 777.558)" fill="url(#paint3_linear_1_45)" fill-opacity="0.79"/>
<rect x="483.047" y="1013.12" width="13.7831" height="195.028" rx="6.89153" transform="rotate(-50 483.047 1013.12)" fill="url(#paint4_linear_1_45)" fill-opacity="0.79"/>
<rect x="1791.31" y="118.93" width="13.7831" height="239.473" rx="6.89153" transform="rotate(130 1791.31 118.93)" fill="url(#paint5_linear_1_45)" fill-opacity="0.79"/>
<rect x="1764.03" y="342.922" width="13.7831" height="553.714" rx="6.89153" transform="rotate(130 1764.03 342.922)" fill="url(#paint6_linear_1_45)" fill-opacity="0.79"/>
<rect x="1248.26" y="107.362" width="13.7831" height="195.028" rx="6.89153" transform="rotate(130 1248.26 107.362)" fill="url(#paint7_linear_1_45)" fill-opacity="0.79"/>
<rect x="1791.31" y="118.93" width="13.7831" height="239.473" rx="6.89153" transform="rotate(130 1791.31 118.93)" fill="url(#paint8_linear_1_45)" fill-opacity="0.79"/>
<rect x="1764.03" y="342.922" width="13.7831" height="553.714" rx="6.89153" transform="rotate(130 1764.03 342.922)" fill="url(#paint9_linear_1_45)" fill-opacity="0.79"/>
<rect x="1248.26" y="107.361" width="13.7831" height="195.028" rx="6.89153" transform="rotate(130 1248.26 107.361)" fill="url(#paint10_linear_1_45)" fill-opacity="0.79"/>
<rect x="166.307" y="18.9303" width="13.7831" height="239.473" rx="6.89153" transform="rotate(130 166.307 18.9303)" fill="url(#paint11_linear_1_45)" fill-opacity="0.79"/>
<rect x="139.027" y="242.922" width="13.7831" height="553.714" rx="6.89153" transform="rotate(130 139.027 242.922)" fill="url(#paint12_linear_1_45)" fill-opacity="0.79"/>
<rect x="1473" y="982.559" width="13.7831" height="294.37" rx="6.89153" transform="rotate(-50 1473 982.559)" fill="url(#paint13_linear_1_45)" fill-opacity="0.79"/>
</g>
<defs>
<linearGradient id="paint0_linear_1_45" x1="1129.29" y1="1095.54" x2="1129.29" y2="1306.79" gradientUnits="userSpaceOnUse">
<stop stop-color="#D6D6D6"/>
<stop offset="1" stop-color="#3F3D56"/>
</linearGradient>
<linearGradient id="paint1_linear_1_45" x1="1120.89" y1="893.559" x2="1120.89" y2="1773.8" gradientUnits="userSpaceOnUse">
<stop stop-color="#D6D6D6"/>
<stop offset="1" stop-color="#3F3D56"/>
</linearGradient>
<linearGradient id="paint2_linear_1_45" x1="-53.1085" y1="1001.55" x2="-53.1085" y2="1241.02" gradientUnits="userSpaceOnUse">
<stop stop-color="#D6D6D6"/>
<stop offset="1" stop-color="#3F3D56"/>
</linearGradient>
<linearGradient id="paint3_linear_1_45" x1="-25.8292" y1="777.558" x2="-25.8292" y2="1331.27" gradientUnits="userSpaceOnUse">
<stop stop-color="#D6D6D6"/>
<stop offset="1" stop-color="#3F3D56"/>
</linearGradient>
<linearGradient id="paint4_linear_1_45" x1="489.938" y1="1013.12" x2="489.938" y2="1208.15" gradientUnits="userSpaceOnUse">
<stop stop-color="#D6D6D6"/>
<stop offset="1" stop-color="#3F3D56"/>
</linearGradient>
<linearGradient id="paint5_linear_1_45" x1="1798.2" y1="118.93" x2="1798.2" y2="358.403" gradientUnits="userSpaceOnUse">
<stop stop-color="#D6D6D6"/>
<stop offset="1" stop-color="#3F3D56"/>
</linearGradient>
<linearGradient id="paint6_linear_1_45" x1="1770.92" y1="342.922" x2="1770.92" y2="896.636" gradientUnits="userSpaceOnUse">
<stop stop-color="#D6D6D6"/>
<stop offset="1" stop-color="#3F3D56"/>
</linearGradient>
<linearGradient id="paint7_linear_1_45" x1="1255.15" y1="107.362" x2="1255.15" y2="302.39" gradientUnits="userSpaceOnUse">
<stop stop-color="#D6D6D6"/>
<stop offset="1" stop-color="#3F3D56"/>
</linearGradient>
<linearGradient id="paint8_linear_1_45" x1="1798.2" y1="118.93" x2="1798.2" y2="358.403" gradientUnits="userSpaceOnUse">
<stop stop-color="#D6D6D6"/>
<stop offset="1" stop-color="#3F3D56"/>
</linearGradient>
<linearGradient id="paint9_linear_1_45" x1="1770.92" y1="342.922" x2="1770.92" y2="896.636" gradientUnits="userSpaceOnUse">
<stop stop-color="#D6D6D6"/>
<stop offset="1" stop-color="#3F3D56"/>
</linearGradient>
<linearGradient id="paint10_linear_1_45" x1="1255.15" y1="107.361" x2="1255.15" y2="302.389" gradientUnits="userSpaceOnUse">
<stop stop-color="#D6D6D6"/>
<stop offset="1" stop-color="#3F3D56"/>
</linearGradient>
<linearGradient id="paint11_linear_1_45" x1="173.198" y1="18.9303" x2="173.198" y2="258.403" gradientUnits="userSpaceOnUse">
<stop stop-color="#D6D6D6"/>
<stop offset="1" stop-color="#3F3D56"/>
</linearGradient>
<linearGradient id="paint12_linear_1_45" x1="145.919" y1="242.922" x2="145.919" y2="796.636" gradientUnits="userSpaceOnUse">
<stop stop-color="#D6D6D6"/>
<stop offset="1" stop-color="#3F3D56"/>
</linearGradient>
<linearGradient id="paint13_linear_1_45" x1="1479.89" y1="982.559" x2="1479.89" y2="1276.93" gradientUnits="userSpaceOnUse">
<stop stop-color="#D6D6D6"/>
<stop offset="1" stop-color="#3F3D56"/>
</linearGradient>
<clipPath id="clip0_1_45">
<rect width="1728" height="1117" fill="white"/>
</clipPath>
</defs>
</svg>
